<svg width="65" height="63" viewBox="0 0 65 63" fill="none" xmlns="http://www.w3.org/2000/svg">
<path fill-rule="evenodd" clip-rule="evenodd" d="M30.1623 0.0595469C29.9401 0.0883709 29.3492 0.143411 28.8492 0.181821C28.3492 0.220296 27.5311 0.327572 27.0311 0.420239C26.5311 0.512841 25.9705 0.612226 25.7854 0.64105C25.1852 0.734565 24.3778 0.902488 24.1019 0.991308C23.9538 1.03898 23.6053 1.14534 23.3276 1.22764C23.0498 1.31 22.7165 1.41382 22.5868 1.45849C22.4572 1.5031 22.1239 1.60365 21.8461 1.68184C21.5684 1.76004 21.2502 1.86222 21.1391 1.90892C20.8555 2.02799 20.3292 2.23589 19.8934 2.40088C19.6897 2.47803 19.4245 2.58335 19.3041 2.63506C19.1837 2.68671 18.9869 2.76836 18.8665 2.81648C18.575 2.93308 17.0296 3.68225 16.7143 3.85989C16.0795 4.21738 15.3449 4.65007 15.3144 4.68437C15.2959 4.70524 15.0535 4.85086 14.7757 5.00802C14.2763 5.29059 14.1354 5.38763 12.6209 6.49181C10.9728 7.69342 9.15647 9.36704 7.61014 11.1088C7.35533 11.3957 7.12107 11.6403 7.08942 11.6522C7.05777 11.6642 7.03191 11.7013 7.03191 11.7347C7.03191 11.7682 6.84586 12.0222 6.61846 12.2994C6.39106 12.5766 6.13579 12.9062 6.05114 13.0321C5.9665 13.1579 5.74462 13.4662 5.5581 13.7173C5.37151 13.9684 5.10411 14.3604 4.96378 14.5885C4.69403 15.0272 4.66884 15.067 4.40198 15.4781C4.30886 15.6215 4.19566 15.8123 4.15041 15.9019C4.10523 15.9916 3.99351 16.1824 3.90214 16.3258C3.65885 16.708 2.80629 18.3903 2.43149 19.2278C2.13022 19.901 2.04895 20.0981 2.04895 20.1555C2.04895 20.1903 2.00484 20.3114 1.95097 20.4244C1.73987 20.867 1.33497 22.0679 0.9801 23.3036C0.752769 24.0951 0.63439 24.6135 0.436351 25.6839C0.393255 25.917 0.326119 26.2545 0.287198 26.4338C0.0645137 27.46 0.00471813 28.4864 0.000341204 31.3574C-0.00477644 34.7275 0.0418884 35.2801 0.540252 37.7482C0.736002 38.7177 0.806504 39.0116 0.978551 39.5742C1.04986 39.8073 1.1077 40.0382 1.10717 40.0871C1.10609 40.1901 1.28426 40.7469 1.4188 41.0606C1.46944 41.1788 1.539 41.3842 1.57327 41.5171C1.64863 41.809 1.81737 42.2711 1.95097 42.5512C2.00484 42.6642 2.04895 42.7853 2.04895 42.8201C2.04895 42.8549 2.11204 43.0265 2.18914 43.2015C2.26624 43.3764 2.37311 43.6223 2.42657 43.7478C2.48011 43.8733 2.56852 44.0591 2.62306 44.1607C2.67768 44.2622 2.72232 44.3711 2.72232 44.4027C2.72232 44.4831 3.55259 46.1114 3.8348 46.5846C3.96315 46.7998 4.09627 47.0376 4.13061 47.1131C4.30367 47.494 5.17731 48.8225 5.88367 49.7789C6.29726 50.339 6.58472 50.6964 7.56576 51.8705C7.8038 52.1554 8.54619 52.9129 9.21553 53.5537C10.7532 55.0261 11.6428 55.7779 12.8524 56.6273C13.2098 56.8784 13.5541 57.1301 13.6172 57.1866C13.796 57.3467 14.8523 58.0296 15.2807 58.2622C15.4531 58.3557 15.6891 58.4926 16.5052 58.972C17.5211 59.5689 18.7405 60.1367 20.028 60.6125C20.2688 60.7014 20.5566 60.8152 20.6677 60.8652C21.0171 61.0226 21.5251 61.2027 22.0481 61.3548C22.9535 61.6179 23.2228 61.6994 23.4622 61.7825C24.0277 61.9787 24.6238 62.1378 24.794 62.1378C24.8953 62.1378 25.084 62.1694 25.2135 62.208C25.3428 62.2465 25.6911 62.3164 25.9874 62.3632C26.2837 62.41 26.6624 62.4796 26.8291 62.518C26.9958 62.5563 27.4752 62.6353 27.8945 62.6935C28.5989 62.7912 29.1344 62.8324 31.6035 62.9787C32.0998 63.0081 32.8876 63.0069 33.3542 62.976C33.8208 62.9451 34.6614 62.8918 35.2223 62.8575C36.349 62.7886 37.0471 62.6941 38.8488 62.367C39.1081 62.32 39.5171 62.2472 39.7579 62.2053C40.2165 62.1254 40.9611 61.9285 41.3922 61.7729C41.5318 61.7225 41.6939 61.6813 41.7523 61.6813C41.8108 61.6813 41.9541 61.6406 42.0708 61.5907C42.1875 61.5408 42.5103 61.4355 42.7881 61.3567C43.2936 61.2131 43.5852 61.1099 44.1143 60.8872C44.2696 60.8218 44.4371 60.7683 44.4865 60.7683C44.5358 60.7683 44.636 60.7306 44.709 60.6844C44.782 60.6382 45.0237 60.5338 45.2459 60.4522C45.8029 60.2479 47.0895 59.6839 47.367 59.5225C47.4226 59.4902 47.5409 59.4335 47.63 59.3965C47.7192 59.3594 47.9252 59.2421 48.088 59.1357C48.2507 59.0294 48.4057 58.9424 48.4325 58.9424C48.4592 58.9424 48.6471 58.8363 48.85 58.7068C49.0528 58.5772 49.446 58.3413 49.7238 58.1825C50.4643 57.7592 50.457 57.7638 50.9422 57.4099C51.1881 57.2305 51.4572 57.0398 51.5403 56.986C51.6799 56.8956 52.7907 56.0863 53.1424 55.8188C53.5894 55.4787 54.4044 54.7369 55.5489 53.6283C56.8492 52.3685 56.9319 52.2815 57.5911 51.4755C57.7964 51.2244 58.0611 50.9163 58.1792 50.7908C58.2973 50.6652 58.5037 50.4085 58.6379 50.2202C58.7719 50.0318 58.9877 49.7311 59.1174 49.5517C59.247 49.3724 59.4536 49.0862 59.5767 48.9159C59.6996 48.7456 59.8891 48.4642 59.9975 48.2906C60.106 48.1171 60.2478 47.897 60.3127 47.8016C60.3777 47.7061 60.477 47.5399 60.5336 47.4323C60.5902 47.3247 60.6962 47.1413 60.7691 47.0247C60.8421 46.9082 60.9613 46.7175 61.0341 46.6009C61.1068 46.4843 61.2287 46.2569 61.305 46.0955C61.3813 45.9341 61.4852 45.7286 61.5359 45.639C61.6303 45.4721 61.913 44.9128 62.0799 44.563C62.1312 44.4554 62.2382 44.2059 62.3176 44.0087C62.3971 43.8114 62.4867 43.6039 62.5167 43.5475C62.5467 43.4913 62.6518 43.2418 62.7503 42.9932C62.8487 42.7447 62.9691 42.4532 63.0176 42.3455C63.0662 42.2377 63.1291 42.047 63.1572 41.9216C63.1854 41.7962 63.2501 41.6357 63.3009 41.5649C63.3517 41.4942 63.3933 41.3676 63.3933 41.2835C63.3933 41.1995 63.4251 41.073 63.4641 41.0025C63.503 40.932 63.6125 40.6038 63.7074 40.2732C63.8024 39.9426 63.9371 39.4855 64.007 39.2576C64.0768 39.0296 64.134 38.7709 64.134 38.6827C64.134 38.5944 64.1641 38.4678 64.2009 38.4012C64.2376 38.3347 64.2968 38.0945 64.3322 37.8675C64.3677 37.6405 64.4407 37.2347 64.4945 36.9657C64.7454 35.7105 64.9365 33.8965 64.9926 32.2377C65.0595 30.2598 64.6606 26.3661 64.2308 24.8035C64.1815 24.6242 64.1226 24.36 64.0998 24.2166C64.0582 23.9546 63.9709 23.6278 63.7163 22.7819C63.4679 21.9566 63.376 21.6761 63.2831 21.4591C63.2326 21.3413 63.1913 21.2 63.1913 21.1451C63.1913 21.0903 63.1279 20.8931 63.0505 20.7072C62.9731 20.5212 62.8547 20.237 62.7875 20.0756C62.0572 18.3217 61.3509 16.9197 60.5176 15.5702C59.6006 14.0851 59.5336 13.9788 59.4932 13.9456C59.4715 13.9276 59.3629 13.7809 59.252 13.6195C59.1411 13.4581 59.0351 13.3114 59.0164 13.2934C58.9976 13.2755 58.8915 13.1288 58.7805 12.9674C58.6695 12.806 58.5459 12.6446 58.5058 12.6087C58.4658 12.5728 58.2109 12.2647 57.9396 11.924C57.6681 11.5832 57.3979 11.2581 57.339 11.2015C57.2801 11.1448 57.0804 10.9256 56.8952 10.7144C56.0075 9.70178 55.4567 9.16449 54.1288 8.01551C53.6134 7.56958 53.1765 7.18443 53.158 7.15972C53.1395 7.135 53.0183 7.0441 52.8887 6.95769C52.759 6.87128 52.1833 6.46259 51.6092 6.04941C51.0352 5.63622 50.414 5.20568 50.2288 5.0926C49.916 4.90166 48.8583 4.28292 48.5806 4.1285C48.5136 4.0912 48.4177 4.02833 48.3674 3.98875C48.3171 3.9491 47.9427 3.7487 47.5353 3.54328C47.1279 3.33792 46.7189 3.13166 46.6263 3.0849C46.315 2.92773 44.5242 2.20179 44.1011 2.06125C43.99 2.02434 43.8481 1.96969 43.7857 1.93983C43.6479 1.87383 43.0948 1.69652 42.283 1.4583C41.9497 1.36048 41.5815 1.23957 41.4648 1.18955C41.3481 1.13954 41.187 1.09865 41.1068 1.09865C41.0267 1.09865 40.8949 1.06435 40.8141 1.02241C40.6756 0.950679 40.2781 0.861143 39.4212 0.70861C39.2175 0.672352 38.8236 0.599053 38.5458 0.545774C37.3428 0.314986 36.9133 0.25212 36.088 0.186321C35.6065 0.147975 34.971 0.0880453 34.6757 0.0532869C34.045 -0.0209904 30.7481 -0.016426 30.1623 0.0595469ZM33.8322 1.91687C33.9618 1.93213 34.5482 1.97446 35.1352 2.01097C35.7223 2.04743 36.2256 2.09106 36.2536 2.10782C36.2817 2.12464 36.6932 2.18477 37.168 2.24144C37.6429 2.29811 38.0505 2.35595 38.0739 2.36997C38.0973 2.38393 38.3872 2.44112 38.7183 2.497C39.705 2.66362 40.0489 2.73764 40.282 2.83357C40.4036 2.88365 40.5601 2.92461 40.6296 2.92461C40.699 2.92461 40.9178 2.97932 41.1155 3.04616C41.7879 3.27362 41.9461 3.32449 42.2494 3.41077C42.416 3.45818 42.719 3.56115 42.9227 3.6396C43.1264 3.71798 43.384 3.80902 43.4951 3.84189C43.6062 3.87469 43.788 3.94271 43.8991 3.99299C44.4765 4.25423 44.7267 4.35929 44.7714 4.35929C44.8324 4.35929 46.1602 4.99792 46.7791 5.32489C47.0297 5.45734 47.4236 5.66413 47.6545 5.78445C48.2679 6.10425 50.1212 7.30416 50.9238 7.90119C51.8521 8.59172 53.494 9.96908 54.1316 10.5922C54.8002 11.2454 55.5678 12.061 55.9377 12.5109C56.1588 12.7799 56.3814 13.0235 56.4323 13.0521C56.4832 13.0808 56.5249 13.1468 56.5249 13.1989C56.5249 13.2509 56.5501 13.2934 56.5809 13.2934C56.6117 13.2934 56.7336 13.4328 56.8517 13.6032C56.9699 13.7736 57.2192 14.1184 57.4057 14.3694C58.2648 15.5263 59.1298 16.877 59.358 17.4181C59.3995 17.5167 59.4609 17.5975 59.4943 17.5975C59.5277 17.5975 59.5551 17.6315 59.5551 17.673C59.5551 17.7145 59.7238 18.0887 59.9301 18.5045C60.3936 19.439 60.5457 19.7541 60.594 19.8799C60.6147 19.9337 60.658 20.0218 60.6904 20.0756C60.7227 20.1294 60.7863 20.2761 60.8318 20.4016C60.8772 20.5272 60.9733 20.7766 61.0454 20.9559C61.1176 21.1353 61.2546 21.5168 61.3499 21.8037C61.4452 22.0906 61.5651 22.4218 61.6165 22.5396C61.6678 22.6573 61.7094 22.7894 61.7089 22.833C61.708 22.9029 61.8321 23.3312 62.0626 24.0535C62.1341 24.2775 62.2358 24.7438 62.3827 25.5208C62.4234 25.736 62.4996 26.1029 62.5521 26.336C62.6046 26.5691 62.6652 26.9213 62.6869 27.1185C62.7085 27.3158 62.7687 27.7707 62.8206 28.1293C62.9974 29.3506 63.0573 31.6296 62.9568 33.3138C62.9065 34.1566 62.8334 35.037 62.7944 35.2701C62.7554 35.5033 62.6941 35.8994 62.6584 36.1505C62.5801 36.7 62.4669 37.2956 62.3735 37.6504C62.3358 37.7939 62.2642 38.102 62.2146 38.3351C62.1649 38.5683 62.089 38.8764 62.0458 39.0199C62.0026 39.1633 61.9054 39.4861 61.8297 39.7372C61.754 39.9883 61.6506 40.2901 61.6 40.4079C61.5493 40.5256 61.5068 40.6724 61.5056 40.7339C61.5043 40.7955 61.4447 40.9632 61.3732 41.1067C61.3016 41.2501 61.2421 41.4279 61.2408 41.5018C61.2395 41.5756 61.194 41.693 61.1396 41.7627C61.0852 41.8322 61.0398 41.934 61.0386 41.9888C61.0353 42.1414 60.1507 44.1718 59.9029 44.5956C59.7584 44.8427 59.6817 44.9808 59.4868 45.3455C59.3718 45.5607 59.2145 45.8395 59.1372 45.965C59.06 46.0906 58.9056 46.3547 58.7941 46.5519C58.6826 46.7492 58.5118 47.0133 58.4146 47.1389C58.3174 47.2644 58.1958 47.4478 58.1443 47.5464C58.093 47.6451 58.0257 47.7258 57.9949 47.7258C57.9641 47.7258 57.939 47.7555 57.939 47.7916C57.939 47.8279 57.8329 48.004 57.7033 48.1829C57.5737 48.3619 57.3561 48.6624 57.2199 48.8507C56.9204 49.2645 56.0602 50.3412 55.9563 50.4321C55.9153 50.468 55.6883 50.7282 55.4517 51.0105C54.8857 51.6858 53.205 53.31 52.5588 53.806C52.2773 54.0221 52.0318 54.2189 52.0133 54.2433C51.9586 54.3155 50.4615 55.4453 50.0773 55.7042C49.8829 55.8353 49.5782 56.0415 49.4002 56.1624C49.2222 56.2833 48.75 56.5694 48.351 56.7982C47.952 57.027 47.5143 57.2808 47.3784 57.3621C47.2425 57.4434 47.0707 57.5387 46.9966 57.5739C46.9226 57.609 46.8165 57.6656 46.761 57.6997C46.7054 57.7337 46.2963 57.9258 45.8519 58.1266C45.4075 58.3273 44.9581 58.5343 44.8532 58.5865C44.7484 58.6388 44.6305 58.6815 44.5912 58.6815C44.552 58.6815 44.3954 58.738 44.2432 58.807C43.8055 59.0055 42.4834 59.4853 42.0473 59.604C41.9177 59.6392 41.7162 59.7102 41.5995 59.7617C41.4828 59.8132 41.3474 59.8554 41.2987 59.8554C41.25 59.8554 41.0879 59.896 40.9385 59.9457C40.4166 60.1195 39.855 60.2662 39.3538 60.3596C38.0882 60.5956 37.8876 60.6339 37.6031 60.6939C35.0454 61.233 29.7536 61.2325 27.2331 60.6929C27.0665 60.6572 26.718 60.589 26.4587 60.5413C26.1995 60.4935 25.8056 60.4199 25.5834 60.3776C25.162 60.2975 24.3819 60.0958 24.0346 59.9771C23.9235 59.9391 23.6995 59.8816 23.5368 59.8493C23.374 59.817 23.2074 59.7654 23.1664 59.7347C23.1254 59.7039 22.9707 59.6479 22.8225 59.61C22.5179 59.5322 22.1772 59.421 21.8798 59.3022C21.7687 59.2578 21.496 59.1569 21.2738 59.078C21.0516 58.9991 20.7788 58.8951 20.6677 58.8469C20.5566 58.7987 20.3142 58.6959 20.129 58.6185C19.2099 58.2343 18.0905 57.7099 17.7722 57.5144C17.6241 57.4234 17.3968 57.2939 17.2672 57.2265C17.1376 57.1592 16.9558 57.0558 16.8632 56.9969C16.645 56.858 16.5509 56.8029 16.0777 56.5366C15.8616 56.415 15.5131 56.1876 15.3032 56.0312C15.0934 55.8749 14.9038 55.7469 14.8818 55.7469C14.8414 55.7469 13.1324 54.4696 12.8229 54.2081C12.7303 54.1298 12.4122 53.8647 12.1159 53.6189C10.554 52.3234 8.50761 50.1208 7.42853 48.5735C7.26598 48.3404 7.11023 48.1399 7.08241 48.1279C7.05467 48.1159 7.03191 48.0804 7.03191 48.0489C7.03191 48.0174 6.86525 47.7546 6.66156 47.4649C6.45786 47.1753 6.2912 46.9196 6.2912 46.8969C6.2912 46.8742 6.24911 46.8093 6.19774 46.7527C6.14629 46.6961 6.01754 46.4935 5.91155 46.3024C5.80556 46.1114 5.60207 45.7446 5.45938 45.4873C5.13737 44.9066 4.62453 43.9164 4.49949 43.6337C4.44797 43.5171 4.36246 43.3264 4.30953 43.2098C4.0554 42.6501 3.93439 42.3562 3.93439 42.2984C3.93439 42.2636 3.89345 42.1425 3.84342 42.0295C3.63993 41.5697 3.46303 41.0991 3.46303 41.0175C3.46303 40.9698 3.42014 40.8383 3.36768 40.7253C3.31529 40.6122 3.20573 40.285 3.12426 39.9981C3.04271 39.7111 2.91894 39.3075 2.84918 39.1011C2.77942 38.8947 2.72232 38.6655 2.72232 38.5917C2.72232 38.5179 2.68044 38.3199 2.62919 38.1518C1.98417 36.0343 1.69017 31.4384 2.00282 28.3608C2.07009 27.699 2.13729 27.1384 2.15217 27.115C2.16712 27.0917 2.21231 26.8554 2.25257 26.5901C2.39903 25.6261 2.7743 24.0668 3.0984 23.0754C3.15119 22.9139 3.19435 22.7379 3.19442 22.6841C3.19449 22.6303 3.24088 22.5001 3.29758 22.3949C3.35421 22.2897 3.42768 22.0989 3.46088 21.971C3.53454 21.6866 3.7047 21.2223 3.83642 20.9461C3.89029 20.8331 3.93439 20.712 3.93439 20.6772C3.93439 20.5066 5.56894 17.1622 5.6952 17.0745C5.72207 17.0558 5.7762 16.9677 5.81546 16.8788C5.85472 16.7899 5.92441 16.6584 5.97041 16.5867C6.01633 16.5149 6.15659 16.2949 6.28211 16.0976C6.40763 15.9003 6.63334 15.5628 6.78364 15.3476C6.934 15.1324 7.15682 14.8096 7.27877 14.6303C7.40072 14.451 7.54698 14.2455 7.60367 14.1738C7.66044 14.1021 7.98406 13.6912 8.32284 13.2608C8.66161 12.8304 9.06496 12.3462 9.21916 12.1848C9.37337 12.0234 9.7512 11.6272 10.0587 11.3044C10.6829 10.6494 11.1076 10.2459 11.9811 9.47849C12.3077 9.19155 12.6231 8.91009 12.6821 8.85297C12.9857 8.55892 14.3153 7.58849 15.1797 7.03007C15.3834 6.89847 15.8299 6.60997 16.1719 6.38897C16.514 6.16796 16.8625 5.95785 16.9463 5.92204C17.0302 5.88624 17.2201 5.7896 17.3682 5.70717C18.1562 5.26894 19.4403 4.6262 19.8934 4.44335C20.023 4.39098 20.2411 4.29199 20.378 4.22332C20.515 4.15465 20.6665 4.09746 20.7147 4.09622C20.7629 4.09498 20.9236 4.03733 21.0718 3.96801C21.2199 3.89869 21.388 3.84104 21.4455 3.8398C21.5028 3.83856 21.5825 3.80596 21.6224 3.76728C21.6623 3.72868 21.7972 3.67227 21.9221 3.64201C22.0469 3.61182 22.3613 3.5095 22.6205 3.41481C22.8798 3.32006 23.2131 3.21389 23.3612 3.17893C23.5094 3.14392 23.7518 3.07544 23.8999 3.02679C24.3602 2.87563 24.8847 2.74286 25.5497 2.60904C26.6782 2.38203 26.9817 2.33162 27.7951 2.23589C28.2338 2.18431 28.6172 2.12744 28.6471 2.10951C28.6979 2.07912 29.9117 1.98463 31.5427 1.8842C32.2209 1.84246 33.3361 1.85831 33.8322 1.91687ZM8.19867 20.5364C7.65573 20.8732 7.64098 22.0611 8.17409 22.521C8.31806 22.6453 8.4462 22.653 10.8603 22.6841L13.3953 22.7167L13.4137 30.3466C13.4239 34.543 13.416 38.0415 13.3962 38.121L13.3601 38.2656L10.6685 38.2841L7.97672 38.3025L7.73188 38.5397C7.49142 38.7727 7.48691 38.7866 7.47836 39.3223C7.46812 39.9601 7.55357 40.2012 7.86232 40.4056L8.08399 40.5524H14.6991C21.8906 40.5524 21.552 40.5695 21.8067 40.1931C21.9558 39.9728 22.0193 39.232 21.9195 38.8764C21.8681 38.6929 21.7711 38.5531 21.6256 38.4525C21.4099 38.3035 21.3905 38.3023 18.7486 38.2699L16.0888 38.2373L16.0551 30.5701C16.0366 26.3531 16.031 22.8546 16.0428 22.7957C16.062 22.6991 16.3088 22.6867 18.5679 22.6701C20.9497 22.6524 21.0806 22.6451 21.2542 22.521C21.5031 22.3431 21.6441 21.9759 21.6441 21.5057C21.6441 21.0676 21.5224 20.7737 21.2489 20.5507L21.0718 20.4063L14.742 20.4051C8.49246 20.4038 8.40963 20.4055 8.19867 20.5364ZM28.06 20.581C27.6675 20.9304 27.6708 20.895 27.6708 24.7383C27.6708 28.2396 27.6717 28.2613 27.8187 28.5273C28.2035 29.2239 29.6397 29.2669 30.1552 28.5974C30.2934 28.418 30.2975 28.3421 30.3183 25.5815L30.3396 22.7496L30.4867 22.7149C30.5675 22.6958 31.6033 22.6884 32.7885 22.6984L34.9432 22.7167V30.477V38.2373L32.6538 38.2699C30.1507 38.3056 30.1952 38.2985 29.9174 38.7065C29.8231 38.845 29.7928 39.0132 29.7924 39.3981C29.7919 39.9699 29.884 40.2068 30.1885 40.4168C30.384 40.5517 30.4179 40.5524 36.3261 40.5524C42.1906 40.5524 42.27 40.5507 42.4896 40.4192C42.7619 40.2562 42.8833 39.9452 42.8833 39.4111C42.8833 38.9203 42.769 38.6007 42.5335 38.433C42.3601 38.3094 42.2285 38.3016 40.0609 38.2847C38.0158 38.2687 37.7625 38.2552 37.6872 38.1581C37.6211 38.0725 37.6031 36.4249 37.6031 30.4342C37.6031 22.9378 37.6052 22.818 37.7351 22.7507C37.8215 22.7059 38.6294 22.6883 40.075 22.6995L42.283 22.7167L42.3167 25.5208C42.3478 28.1118 42.3601 28.3432 42.4784 28.565C42.8076 29.1819 44.2487 29.2579 44.7745 28.686C44.9059 28.5431 44.9092 28.4473 44.9092 24.6938V20.8481L44.6577 20.6249L44.4061 20.4016H36.3338H28.2614L28.06 20.581ZM48.3761 22.3724C48.0148 22.4317 47.8243 22.5526 47.6419 22.8383C47.4614 23.1213 47.3895 23.785 47.4976 24.1711C47.6486 24.7106 48.4444 25.2435 48.4444 24.8052C48.4444 24.693 48.3847 24.6139 48.2489 24.5459C47.9475 24.3949 47.771 24.0652 47.771 23.6527C47.771 23.1393 48.0496 22.7954 48.5309 22.7146C48.9244 22.6486 48.9831 22.7359 48.9831 23.3874C48.9831 24.0965 49.1343 24.5838 49.4333 24.838C49.8833 25.2207 50.524 25.1559 50.8705 24.6927C51.0499 24.4528 51.0705 24.375 51.0705 23.9369C51.0705 23.5083 51.0458 23.4095 50.8685 23.1305C50.7574 22.9556 50.6665 22.8012 50.6665 22.7873C50.6665 22.7734 50.7597 22.7306 50.8735 22.6922C51.0325 22.6385 51.0753 22.5891 51.0586 22.4787C51.0372 22.3372 51.0199 22.3351 49.8495 22.3303C49.1964 22.3276 48.5334 22.3465 48.3761 22.3724ZM50.3268 22.952C50.5873 23.2043 50.7339 23.5349 50.7339 23.8702C50.7339 24.5524 50.122 24.9367 49.6421 24.5561C49.3596 24.332 49.1438 23.1983 49.3221 22.8754C49.3778 22.7747 49.4649 22.7493 49.7546 22.7493C50.0708 22.7493 50.1444 22.7754 50.3268 22.952ZM49.9932 26.7907C49.6043 27.1476 49.2295 27.4584 49.1605 27.4815C49.0679 27.5124 48.9349 27.4307 48.6554 27.1712C47.6 26.1916 47.367 26.0425 47.367 26.3462C47.367 26.4405 47.6242 26.726 48.146 27.2111L48.925 27.9355L48.9036 28.228L48.8821 28.5206H48.156C47.5838 28.5206 47.4162 28.5414 47.3658 28.6184C47.3306 28.6722 47.3114 28.7456 47.323 28.7815C47.3565 28.8843 48.3725 28.9488 49.6565 28.9296C50.8209 28.9121 50.8351 28.9101 50.8564 28.7652C50.8731 28.6513 50.8429 28.6162 50.7217 28.6085C50.6358 28.603 50.5352 28.5918 50.4982 28.5834C50.4611 28.5751 50.2012 28.5649 49.9204 28.5607C49.4514 28.5538 49.4027 28.5402 49.3216 28.3935C49.1898 28.155 49.339 27.8722 49.8221 27.4446C50.6856 26.6804 50.9359 26.4188 50.9359 26.2806C50.9359 26.0131 50.7032 26.1389 49.9932 26.7907ZM47.3795 30.223C47.3212 30.2643 47.296 30.3409 47.3203 30.4023C47.3563 30.4932 47.4801 30.5096 48.1289 30.5096C49.1065 30.5096 49.1318 30.5301 49.1725 31.3562C49.1979 31.8693 49.184 31.9633 49.0525 32.1693C48.8434 32.497 48.6978 32.5511 48.0396 32.5453C47.3869 32.5396 47.2782 32.5774 47.3106 32.7994C47.3321 32.9465 47.3624 32.9561 47.8656 32.9743C49.0349 33.0166 49.5774 32.5306 49.5251 31.4878C49.5152 31.2905 49.5028 30.9981 49.4976 30.8378L49.4881 30.5465L50.1615 30.5444C50.8046 30.5423 50.8358 30.5357 50.8561 30.3978C50.8717 30.2913 50.8363 30.2446 50.7214 30.2199C50.3856 30.1479 47.4816 30.1506 47.3795 30.223ZM48.033 33.6317C47.3663 33.8593 46.907 34.3641 46.7299 35.0643C46.6252 35.4778 46.625 35.5399 46.7264 35.9189C46.8962 36.5534 47.1586 36.8943 47.7374 37.2323C47.9745 37.3708 48.0871 37.3895 48.6801 37.389C49.301 37.3884 49.3759 37.3744 49.6412 37.2079C50.0435 36.9554 50.5477 36.4322 50.7309 36.077C50.8615 35.8239 50.8804 35.707 50.8522 35.3264C50.831 35.0389 50.7791 34.8329 50.7091 34.758C50.6486 34.6933 50.5992 34.6061 50.5992 34.5643C50.5992 34.5224 50.3909 34.3234 50.1363 34.122C49.4086 33.5462 48.7399 33.3903 48.033 33.6317ZM47.2727 37.7875C47.1982 37.9753 47.151 40.7748 47.2206 40.8717C47.2566 40.9217 47.3346 40.9446 47.3939 40.9226C47.4798 40.8906 47.5019 40.7796 47.5026 40.3751C47.5031 40.096 47.5225 39.799 47.5457 39.7151L47.5879 39.5626L49.0914 39.5845C50.47 39.6045 50.6048 39.5965 50.7149 39.4884C50.83 39.3753 50.8296 39.3667 50.7042 39.2767C50.5997 39.2018 50.2737 39.1829 49.079 39.1829H47.5847L47.5506 39.0102C47.5318 38.9151 47.5318 38.6811 47.5506 38.49C47.5693 38.2989 47.5646 38.0392 47.5401 37.9128C47.4939 37.6742 47.3452 37.6045 47.2727 37.7875Z" fill="black"/>
</svg>
